<svg width="19" height="19" viewBox="0 0 19 19">
  <path fill="#B9BFC7" fill-rule="evenodd" d="M9.625,17.2083333 L6.625,17.2083333 C3.17756724,17.2083333 0.625,17.2083333 0.625,15.2083333 C0.625,11.8709647 3.21913203,9.20833333 6.625,9.20833333 L9.625,9.20833333 C13.0302567,9.20833333 15.625,11.8716019 15.625,15.2083333 C15.625,17.2083333 12.9446822,17.2083333 9.625,17.2083333 Z M7.625,8.20833333 C9.834139,8.20833333 11.625,6.41747233 11.625,4.20833333 C11.625,1.99919433 9.834139,0.208333333 7.625,0.208333333 C5.415861,0.208333333 3.625,1.99919433 3.625,4.20833333 C3.625,6.41747233 5.415861,8.20833333 7.625,8.20833333 Z" transform="translate(1.375 .792)"/>
</svg>
