<svg width="19" height="19" viewBox="0 0 19 19">
  <path fill="#B9BFC7" fill-rule="evenodd" d="M9.24136953,17.4166667 L5.79968419,17.4166667 C2.5596577,17.4166667 0,17.4166667 0,15.7479966 L0,15.4044468 C0,12.2124784 2.60133795,9.61628619 5.79968419,9.61628619 L9.24136953,9.61628619 C12.4397158,9.61628619 15.0416667,12.2130997 15.0416667,15.4044468 L15.0416667,15.7479966 C15.0416667,17.4166667 12.3539035,17.4166667 9.24136953,17.4166667 Z M7.34859583,9.17457939 C4.8159077,9.17457939 2.75518711,7.11638725 2.75518711,4.5872897 C2.75518711,2.05819214 4.8159077,-6.05737682e-13 7.34859583,-6.05737682e-13 C9.88128396,-6.05737682e-13 11.9420046,2.05757089 11.9420046,4.5872897 C11.9420046,7.1170085 9.88128396,9.17457939 7.34859583,9.17457939 Z" transform="translate(2.375 .792)"/>
</svg>
